<svg width="100" height="40" viewBox="0 0 100 40" fill="none" xmlns="http://www.w3.org/2000/svg">
<path d="M24.9375 35.6085C24.9375 32.9784 26.6517 31.184 29.1691 31.184C30.1168 31.184 31.0425 31.3948 31.9534 31.8315L32.0881 33.7514H31.7477L31.2727 33.0035C30.7143 32.1678 30.0678 31.844 29.1691 31.844C27.4549 31.844 26.2868 33.3774 26.2868 35.6211C26.2868 37.8647 27.4916 39.2726 29.3503 39.2726C29.9699 39.2726 30.6384 39.1095 30.9445 38.8611V37.1043C30.9445 36.768 30.8098 36.6049 30.3739 36.4317L29.8744 36.2209V35.8846H32.8301V36.2209L32.551 36.384C32.3085 36.5095 32.2228 36.6827 32.2228 37.0064V39.0744C31.4931 39.6491 30.3862 39.9728 29.1936 39.9728C26.4827 39.9728 24.9375 38.3892 24.9375 35.611V35.6085Z" fill="#183028"/>
<path d="M35.7969 39.8467V39.5104L36.2719 39.3122C36.6613 39.1365 36.7593 39.001 36.7593 38.627V32.5336C36.7593 32.1596 36.6613 32.0115 36.2719 31.8484L35.7969 31.6476V31.3113H39.3232C41.2823 31.3113 42.4357 32.1973 42.4357 33.6805C42.4357 34.8274 41.6692 35.6882 40.3934 36.012C40.6113 36.1123 40.8684 36.3608 41.0496 36.672L42.181 38.6797C42.3867 39.0537 42.5826 39.2018 42.9597 39.3523L43.3981 39.528V39.8518H41.3802L39.715 36.9104C39.4481 36.4486 39.24 36.2127 39.0587 36.1751H38.0376V38.6296C38.0376 38.9784 38.16 39.129 38.5861 39.3147L39.0612 39.513V39.8493H35.8018L35.7969 39.8467ZM38.0351 35.5351H39.142C40.2856 35.5351 41.0766 34.7621 41.0766 33.678C41.0766 32.6816 40.2734 31.9463 39.1542 31.9463H38.0351V35.5351Z" fill="#183028"/>
<path d="M46.5156 39.8467V39.5104L46.9907 39.3122C47.3801 39.1365 47.478 38.9759 47.478 38.6396V32.5335C47.478 32.1722 47.3923 32.0216 46.9907 31.8484L46.5156 31.6476V31.3113H52.912L53.059 33.2563H52.7186L52.3414 32.6339C51.9888 32.0718 51.8051 31.9488 51.2346 31.9488H48.7539V35.2264H50.6762C51.0533 35.2264 51.188 35.126 51.357 34.727L51.5407 34.2401H51.8688V36.9707H51.5407L51.357 36.421C51.1978 35.9718 51.0411 35.8589 50.6762 35.8589H48.7539V38.5267C48.7539 39.0637 48.8763 39.2118 49.3612 39.2118H51.308C51.9521 39.2118 52.1602 39.0738 52.5373 38.489L52.939 37.8164H53.2671L53.0002 39.8492H46.5181L46.5156 39.8467Z" fill="#183028"/>
<path d="M56.4766 39.8467V39.5104L56.9516 39.3122C57.341 39.1365 57.439 38.9759 57.439 38.6396V32.5335C57.439 32.1722 57.3533 32.0216 56.9516 31.8484L56.4766 31.6476V31.3113H62.873L63.0199 33.2563H62.6795L62.3024 32.6339C61.9497 32.0718 61.7661 31.9488 61.1955 31.9488H58.7148V35.2264H60.6372C61.0143 35.2264 61.149 35.126 61.3179 34.727L61.5016 34.2401H61.8298V36.9707H61.5016L61.3179 36.421C61.1588 35.9718 61.002 35.8589 60.6372 35.8589H58.7148V38.5267C58.7148 39.0637 58.8373 39.2118 59.3221 39.2118H61.269C61.913 39.2118 62.1212 39.0738 62.4983 38.489L62.8999 37.8164H63.228L62.9611 39.8492H56.479L56.4766 39.8467Z" fill="#183028"/>
<path d="M73.3388 39.9973L68.1228 32.9928V38.627C68.1228 38.9759 68.233 39.139 68.7178 39.3247L69.2297 39.513V39.8493H66.4453V39.513L66.9326 39.3147C67.3098 39.1516 67.4077 39.0035 67.4077 38.6296V32.5361C67.4077 32.137 67.2608 31.999 66.9204 31.8384L66.4576 31.6501V31.3138H68.4877L73.2678 37.844V32.5461C73.2678 32.1847 73.1699 32.0216 72.6727 31.8359L72.1732 31.6476V31.3113H74.9453V31.6476L74.4579 31.8484C74.0931 32.0216 73.9829 32.1596 73.9829 32.5461V39.6259L73.3388 39.9998V39.9973Z" fill="#183028"/>
<path d="M0 18.5666V17.8337L1.03096 17.3996C1.87827 17.0206 2.08887 16.722 2.08887 15.9088V2.65774C2.08887 1.84461 1.87827 1.51835 1.03096 1.167L0 0.732824V0H7.74815C12.0581 0 14.5706 2.16836 14.5706 5.82746C14.5706 9.48657 11.9798 11.6549 7.64285 11.6549H4.86586V15.9088C4.86586 16.6391 5.1034 16.9378 6.056 17.3444L7.24614 17.8312V18.5641H0V18.5666ZM4.86586 10.2746H7.3245C9.94232 10.2746 11.6075 8.54042 11.6075 5.82997C11.6075 3.11952 9.99375 1.38534 7.45674 1.38534H4.86586V10.2746Z" fill="#183028"/>
<path d="M18.1164 13.6345V8.8661C18.1164 7.75431 17.8519 7.34774 17.1124 7.18461L16.1328 6.96878V6.29117L20.0999 4.6925L20.7342 5.09907V13.2028C20.7342 15.6422 21.7382 16.7791 23.8026 16.7791C24.8605 16.7791 26.1021 16.1818 26.9224 15.2607V8.8661C26.9224 7.75431 26.658 7.34774 25.9184 7.18461L24.9389 6.96878V6.29117L28.906 4.6925L29.5133 5.09907V15.2607C29.5133 16.2094 29.7509 16.5357 30.6251 16.6436L31.5777 16.7515L31.7099 17.4567L28.2718 18.8395H27.7159L26.9763 16.6988C25.9454 18.0264 24.3046 18.8395 22.7716 18.8395C19.7571 18.8395 18.1188 17.025 18.1188 13.637L18.1164 13.6345Z" fill="#183028"/>
<path d="M33.0518 18.5685V17.8633L34.1097 17.4567C34.8762 17.1305 35.1137 16.8067 35.1137 15.9384V8.97401C35.1137 7.86222 34.8223 7.40295 34.0827 7.23982L33.1032 7.02399V6.37399L36.8573 4.6925L37.4646 5.07146V7.64639C38.3119 5.85699 39.6857 4.6925 41.0864 4.6925C41.8799 4.6925 42.7272 5.01876 43.4129 5.58595L43.1214 8.51223H42.4064C41.6913 7.26492 41.1893 6.85835 40.3175 6.85835C39.4457 6.85835 38.4662 7.61627 37.6997 8.89119V15.9384C37.6997 16.7515 37.9372 17.0225 39.1274 17.4567L40.2391 17.8633V18.5685H33.0469H33.0518Z" fill="#183028"/>
<path d="M44.6406 25.0736V24.3683L45.6985 23.9618C46.492 23.6631 46.7564 23.2842 46.7564 22.4434V8.97401C46.7564 7.83462 46.465 7.40295 45.7255 7.23982L44.7459 7.02399V6.34638L48.5 4.6925L49.1073 5.07146V7.15951C50.4297 5.56085 52.0435 4.6925 53.6034 4.6925C56.8285 4.6925 59.1305 7.40295 59.1305 11.2227C59.1305 15.9384 56.4588 18.837 52.1757 18.837C51.1717 18.837 50.1652 18.566 49.3473 18.0515V22.4409C49.3473 23.2541 49.5849 23.5251 50.775 23.9593L51.8868 24.3658V25.0711H44.6406V25.0736ZM56.3045 12.0383C56.3045 8.70547 54.8499 6.67264 52.4965 6.67264C51.3333 6.67264 50.1701 7.29504 49.3498 8.35412V14.8316C49.4281 16.5106 50.5913 17.5947 52.3374 17.5947C54.6907 17.5947 56.3045 15.3185 56.3045 12.0383Z" fill="#183028"/>
<path d="M61.1328 11.7648C61.1328 7.64639 63.9367 4.6925 67.7178 4.6925C71.4988 4.6925 74.2758 7.51087 74.2758 11.7924C74.2758 16.0739 71.4988 18.8395 67.7178 18.8395C63.9367 18.8395 61.1328 16.0488 61.1328 11.7673V11.7648ZM71.4474 11.7899C71.4474 8.18597 70.0197 5.9624 67.7178 5.9624C65.4158 5.9624 63.9637 8.18346 63.9637 11.7623C63.9637 15.3411 65.4183 17.5621 67.7178 17.5621C70.0172 17.5621 71.4474 15.3662 71.4474 11.7899Z" fill="#183028"/>
<path d="M87.9658 11.82C87.9658 7.83462 90.5567 4.6925 94.1541 4.6925C97.46 4.6925 99.7595 6.86086 99.8648 10.791V11.3883H90.7673V11.7397C90.7673 15.208 92.5133 17.0777 95.3148 17.0777C96.7694 17.0777 97.8543 16.616 98.9097 15.858L99.544 16.6988C98.1677 18.054 96.3972 18.8395 94.2814 18.8395C90.4196 18.8395 87.9609 16.3725 87.9609 11.82H87.9658ZM97.22 10.0582C97.1417 7.59118 96.003 5.96491 94.2055 5.96491C92.408 5.96491 91.191 7.51087 90.8481 10.1385L97.22 10.0582Z" fill="#183028"/>
<path d="M76.1743 17.404L76.4927 14.2594H77.2077L77.8151 15.5343C78.5032 16.8343 79.6125 17.5671 81.0671 17.5671C82.627 17.5671 83.6849 16.754 83.6849 15.4264C83.6849 14.3146 82.9968 13.5291 80.3006 12.4449C77.602 11.3607 76.4388 10.0607 76.4388 8.35161C76.4388 6.15564 78.3171 4.6925 81.1455 4.6925C82.627 4.6925 84.2923 5.07147 85.5093 5.64116L85.2179 8.56744H84.5029C84.1331 7.86222 83.8417 7.42805 83.4719 6.99639C82.916 6.34638 82.0711 5.96742 81.1724 5.96742C79.7178 5.96742 78.7921 6.67264 78.7921 7.674C78.7921 8.67536 79.5586 9.32787 82.1765 10.4924C85.0318 11.7397 86.0897 13.0397 86.0897 14.7212C86.0897 17.1882 84.0008 18.8395 80.9324 18.8395C79.2403 18.8395 77.4159 18.3251 76.1719 17.404H76.1743Z" fill="#183028"/>
</svg>
